<svg xmlns="http://www.w3.org/2000/svg" version="1.1" xmlns:xlink="http://www.w3.org/1999/xlink" xmlns:svgjs="http://svgjs.dev/svgjs" width="1500" height="458" viewBox="0 0 1500 458"><g transform="matrix(1,0,0,1,-0.9090909090909918,0.364140663852595)"><svg viewBox="0 0 396 121" data-background-color="#2a2c35" preserveAspectRatio="xMidYMid meet" height="458" width="1500" xmlns="http://www.w3.org/2000/svg" xmlns:xlink="http://www.w3.org/1999/xlink"><g id="tight-bounds" transform="matrix(1,0,0,1,0.2400000000000091,-0.09620310114883068)"><svg viewBox="0 0 395.52 121.19240620229766" height="121.19240620229766" width="395.52"><g><svg viewBox="0 0 646.9841825039075 198.24426034707486" height="121.19240620229766" width="395.52"><g transform="matrix(1,0,0,1,251.46418250390747,42.76324346244374)"><svg viewBox="0 0 395.52 112.71777342218738" height="112.71777342218738" width="395.52"><g id="textblocktransform"><svg viewBox="0 0 395.52 112.71777342218738" height="112.71777342218738" width="395.52" id="textblock"><g><svg viewBox="0 0 395.52 112.71777342218738" height="112.71777342218738" width="395.52"><g transform="matrix(1,0,0,1,0,0)"><svg width="395.52" viewBox="2.05 -35.8 126.44000000000001 36.349999999999994" height="112.71777342218738" data-palette-color="#f7f7f7"><g class="wordmark-text-0" data-fill-palette-color="primary" id="text-0"><path d="M15.4-4.3L4.9-35 2.05-35 2.05 0 4.9 0 4.9-26.75 13.9 0 16.95 0 26.1-26.75 26.1 0 28.9 0 28.9-35 26.1-35 15.4-4.3ZM32.75-25.4L32.75-25.4 32.75-9.3Q32.75-6.05 34.17-3.85 35.6-1.65 38-0.55 40.4 0.55 43.35 0.55L43.35 0.55Q46.45 0.55 48.82-0.65 51.2-1.85 52.52-4.05 53.85-6.25 53.85-9.3L53.85-9.3 53.85-25.35Q53.85-30.25 51.1-33.02 48.35-35.8 43.4-35.8L43.4-35.8Q38.45-35.8 35.6-33.15 32.75-30.5 32.75-25.4ZM35.6-9.35L35.6-9.35 35.6-25.85Q35.6-28.3 36.55-29.9 37.5-31.5 39.22-32.33 40.95-33.15 43.25-33.15L43.25-33.15Q45.65-33.15 47.4-32.33 49.15-31.5 50.1-29.9 51.05-28.3 51.05-25.85L51.05-25.85 51.05-9.35Q51.05-6.9 50.05-5.28 49.05-3.65 47.3-2.88 45.55-2.1 43.25-2.1L43.25-2.1Q41.05-2.1 39.32-2.93 37.6-3.75 36.6-5.35 35.6-6.95 35.6-9.35ZM82.34 0L82.34-35 79.55-35 79.55-5.15 60.55-35 57.7-35 57.7 0 60.55 0 60.55-29.85 79.55 0 82.34 0ZM86.54-35L86.54 0 103.14 0 103.14-2.5 89.39-2.5 89.39-17.85 97.99-17.85 98.89-20.6 89.39-20.6 89.39-32.4 103.24-32.4 103.24-35 86.54-35ZM128.49-7.8L128.49-7.8 128.49-35 125.64-35 125.64-21.15Q125.64-19.45 124.89-18.25 124.14-17.05 122.92-16.35 121.69-15.65 120.22-15.33 118.74-15 117.29-15L117.29-15Q114.74-15 112.89-15.85 111.04-16.7 110.07-18.4 109.09-20.1 109.09-22.65L109.09-22.65 109.09-35 106.29-35 106.29-22.75Q106.29-19.55 107.49-17.2 108.69-14.85 111.02-13.55 113.34-12.25 116.69-12.25L116.69-12.25Q118.29-12.25 119.99-12.58 121.69-12.9 123.19-13.58 124.69-14.25 125.64-15.3L125.64-15.3 125.64-7.65Q125.64-6.4 125.47-5.4 125.29-4.4 124.92-3.63 124.54-2.85 123.97-2.33 123.39-1.8 122.59-1.5L122.59-1.5 123.24 0.35Q125.74 0 127.12-2.08 128.49-4.15 128.49-7.8Z" fill="#f7f7f7" data-fill-palette-color="primary"></path></g></svg></g></svg></g></svg></g></svg></g><g><svg viewBox="0 0 198.24426034707486 198.24426034707486" height="198.24426034707486" width="198.24426034707486"><g><svg></svg></g><g id="icon-0"><svg viewBox="0 0 198.24426034707486 198.24426034707486" height="198.24426034707486" width="198.24426034707486"><g><path d="M0 99.122c0-54.744 44.378-99.122 99.122-99.122 54.744 0 99.122 44.378 99.122 99.122 0 54.744-44.378 99.122-99.122 99.122-54.744 0-99.122-44.378-99.122-99.122zM99.122 188.079c49.13 0 88.957-39.827 88.957-88.957 0-49.13-39.827-88.957-88.957-88.957-49.13 0-88.957 39.827-88.957 88.957 0 49.13 39.827 88.957 88.957 88.957z" data-fill-palette-color="accent" fill="#f7f7f7" stroke="transparent"></path></g><g transform="matrix(1,0,0,1,45.50548150211136,50.379941094368114)"><svg viewBox="0 0 107.23329734285214 97.48437815833863" height="97.48437815833863" width="107.23329734285214"><g><svg xmlns="http://www.w3.org/2000/svg" xmlns:xlink="http://www.w3.org/1999/xlink" version="1.1" x="0" y="0" viewBox="4.702 8 89.107 81.006" enable-background="new 0 0 100 100" xml:space="preserve" height="97.48437815833863" width="107.23329734285214" class="icon-cg-0" data-fill-palette-color="accent" id="cg-0"><g fill="#f7f7f7" data-fill-palette-color="accent"><polygon fill="#f7f7f7" points="4.702,89.006 93.809,89.006 93.809,16.101 53.306,16.101 53.306,24.201 85.708,24.201    85.708,80.905 12.803,80.905 12.803,64.704 4.702,64.704  " data-fill-palette-color="accent"></polygon><g fill="#f7f7f7" data-fill-palette-color="accent"><rect x="4.702" y="24.201" fill="#f7f7f7" width="8.101" height="8.101" data-fill-palette-color="accent"></rect><rect x="37.104" y="40.402" fill="#f7f7f7" width="8.101" height="8.101" data-fill-palette-color="accent"></rect><polygon fill="#f7f7f7" points="45.205,24.201 45.205,16.101 29.004,16.101 29.004,8 20.903,8 20.903,16.101 12.803,16.101     12.803,24.201 20.903,24.201 20.903,32.302 12.803,32.302 12.803,40.402 20.903,40.402 20.903,48.503 4.702,48.503 4.702,56.604     20.903,56.604 20.903,64.704 29.004,64.704 29.004,56.604 37.104,56.604 37.104,48.503 29.004,48.503 29.004,40.402     37.104,40.402 37.104,32.302 29.004,32.302 29.004,24.201   " data-fill-palette-color="accent"></polygon></g></g></svg></g></svg></g></svg></g></svg></g></svg></g><defs></defs></svg><rect width="395.52" height="121.19240620229766" fill="none" stroke="none" visibility="hidden"></rect></g></svg></g></svg>